<svg width="64" height="52" viewBox="0 0 64 52" fill="none" xmlns="http://www.w3.org/2000/svg">
<path d="M21.1445 0C17.0781 0 13.5 2.74609 12.4492 6.68359L10.5 14H5C3.34766 14 2 15.3477 2 17V19C2 20.6523 3.34766 22 5 22H5.47266C4.51562 23.8438 4 25.9141 4 28V39C4 40.6289 4.79297 42.0625 6 42.9727V48C6 48.7305 6.21094 49.4102 6.55469 50H1C0.445313 50 0 50.4492 0 51C0 51.5508 0.445313 52 1 52H63C63.5547 52 64 51.5508 64 51C64 50.4492 63.5547 50 63 50H57.4414C57.7891 49.4102 58 48.7305 58 48V42.9727C59.207 42.0625 60 40.625 60 39V28C60 25.9141 59.4844 23.8438 58.5273 22H59C60.6523 22 62 20.6523 62 19V17C62 15.3477 60.6523 14 59 14H53.5L51.5469 6.68359C50.5 2.74609 46.9219 0 42.8555 0H21.1445ZM21.1445 2H42.8555C46.0195 2 48.8008 4.13672 49.6172 7.19531L51.6367 14.7617C51.9336 15.8789 52.4375 16.9141 53.1289 17.8438L53.7266 18.6367L51.9766 19.4883C51.2969 19.8242 50.5352 20 49.7773 20H48.9102C48.4336 17.168 45.9688 15 43 15C40.0312 15 37.5703 17.168 37.0898 20H14.3164C13.5547 20 12.7891 19.8203 12.1016 19.4805L10.3047 18.5938L10.8711 17.8438C11.5625 16.918 12.0664 15.8789 12.3633 14.7617L14.3828 7.19531C15.1992 4.13672 17.9805 2 21.1445 2ZM29.918 6C29.3633 6 28.918 6.44922 28.918 7C28.918 7.55078 29.3633 8 29.918 8H34.168C34.7227 8 35.168 7.55078 35.168 7C35.168 6.44922 34.7227 6 34.168 6H29.918ZM5 16H9.69531C9.5625 16.2188 9.42578 16.4336 9.26953 16.6406L6.75 20H5C4.44922 20 4 19.5508 4 19V17C4 16.4492 4.44922 16 5 16ZM54.3086 16H59C59.5508 16 60 16.4492 60 17V19C60 19.5508 59.5508 20 59 20H57.25L54.7305 16.6406C54.5742 16.4336 54.4375 16.2188 54.3086 16ZM43 17C44.8594 17 46.4102 18.2812 46.8594 20H39.1406C39.5898 18.2812 41.1406 17 43 17ZM9.08594 20.2188L11.2188 21.2773C12.1758 21.75 13.25 22 14.3164 22H49.7773C50.8398 22 51.9023 21.7539 52.8555 21.2852L54.9492 20.2656L55.8008 21.4023C56.8555 22.8086 57.5586 24.4648 57.8477 26.1992C57.7891 26.2031 57.7305 26.1953 57.6719 26.207L49.3438 27.5938C47.4062 27.918 46 29.5781 46 31.543V32C46 33.1016 46.8984 34 48 34H58V39C58 40.6523 56.6523 42 55 42H9C7.34766 42 6 40.6523 6 39V34H16C17.1016 34 18 33.1016 18 32V31.543C18 29.5781 16.5938 27.918 14.6562 27.5938L6.32812 26.207C6.26953 26.1953 6.21094 26.2031 6.15234 26.1992C6.44141 24.4648 7.14453 22.8086 8.19922 21.4023L9.08594 20.2188ZM6 28.1797L14.3281 29.5664C15.2969 29.7305 16 30.5625 16 31.543V32H6V28.1797ZM58 28.1836V32H48V31.543C48 30.5625 48.7031 29.7305 49.6719 29.5664L58 28.1836ZM22 30C21.4453 30 21 30.4492 21 31V33C21 33.5508 21.4453 34 22 34C22.5547 34 23 33.5508 23 33V31C23 30.4492 22.5547 30 22 30ZM27 30C26.4453 30 26 30.4492 26 31V33C26 33.5508 26.4453 34 27 34C27.5547 34 28 33.5508 28 33V31C28 30.4492 27.5547 30 27 30ZM32 30C31.4453 30 31 30.4492 31 31V33C31 33.5508 31.4453 34 32 34C32.5547 34 33 33.5508 33 33V31C33 30.4492 32.5547 30 32 30ZM37 30C36.4453 30 36 30.4492 36 31V33C36 33.5508 36.4453 34 37 34C37.5547 34 38 33.5508 38 33V31C38 30.4492 37.5547 30 37 30ZM42 30C41.4453 30 41 30.4492 41 31V33C41 33.5508 41.4453 34 42 34C42.5547 34 43 33.5508 43 33V31C43 30.4492 42.5547 30 42 30ZM8.91797 36C8.36328 36 7.91797 36.4492 7.91797 37C7.91797 37.5508 8.36328 38 8.91797 38H13.168C13.7227 38 14.168 37.5508 14.168 37C14.168 36.4492 13.7227 36 13.168 36H8.91797ZM16.918 36C16.3633 36 15.918 36.4492 15.918 37C15.918 37.5508 16.3633 38 16.918 38H47.168C47.7227 38 48.168 37.5508 48.168 37C48.168 36.4492 47.7227 36 47.168 36H16.918ZM50.918 36C50.3633 36 49.918 36.4492 49.918 37C49.918 37.5508 50.3633 38 50.918 38H55.168C55.7227 38 56.168 37.5508 56.168 37C56.168 36.4492 55.7227 36 55.168 36H50.918ZM8 44H14V48C14 49.1016 13.1016 50 12 50H10C8.89844 50 8 49.1016 8 48V44ZM16 44H48V48C48 48.7305 48.2109 49.4102 48.5586 50H15.4414C15.7891 49.4102 16 48.7305 16 48V44ZM50 44H56V48C56 49.1016 55.1016 50 54 50H52C50.8984 50 50 49.1016 50 48V44Z" fill="black"/>
</svg>
