<svg width="62" height="62" viewBox="0 0 62 62" fill="none" xmlns="http://www.w3.org/2000/svg">
<path d="M48.7972 0.302735C48.0289 0.302985 47.2611 0.595688 46.6761 1.17969C45.5061 2.34969 45.5061 4.25383 46.6761 5.42383L47.3831 6.13086L44.555 8.95703L43.8479 8.25195C42.7139 7.11795 40.7388 7.11795 39.6058 8.25195L8.90653 38.9492C7.73653 40.1192 7.73653 42.0234 8.90653 43.1934L9.61356 43.9004L6.07841 47.4355C5.68741 47.8265 5.68741 48.4586 6.07841 48.8496L6.78544 49.5566L3.25028 53.0918C2.85928 53.4828 2.85928 54.1149 3.25028 54.5059L4.66434 55.9199L1.12919 59.4551C0.738187 59.8461 0.738187 60.4781 1.12919 60.8691C1.32419 61.0641 1.58022 61.1621 1.83622 61.1621C2.09222 61.1621 2.34825 61.0641 2.54325 60.8691L6.07841 57.334L7.49247 58.748C7.68747 58.943 7.9435 59.041 8.1995 59.041C8.4555 59.041 8.71153 58.943 8.90653 58.748L12.4417 55.2129L13.1487 55.9199C13.3437 56.1149 13.5998 56.2129 13.8558 56.2129C14.1117 56.2129 14.3678 56.1149 14.5628 55.9199L18.0979 52.3848L18.805 53.0918C19.39 53.6768 20.1581 53.9688 20.9261 53.9688C21.6951 53.9688 22.4641 53.6768 23.0491 53.0918L53.7464 22.3926C54.3134 21.8266 54.6253 21.0735 54.6253 20.2715C54.6253 19.4695 54.3134 18.7164 53.7464 18.1504L53.0393 17.4434L55.8675 14.6133L56.5745 15.3203C57.1595 15.9053 57.9276 16.1973 58.6956 16.1973C59.4646 16.1973 60.2336 15.9053 60.8186 15.3203C61.9876 14.1513 61.9876 12.2501 60.8186 11.0801L50.9202 1.17969C50.3352 0.594688 49.5654 0.302485 48.7972 0.302735ZM48.7991 2.30273C49.0551 2.30273 49.3111 2.4007 49.5061 2.5957L59.4046 12.4941C59.7936 12.8841 59.7936 13.5182 59.4046 13.9082C59.0156 14.2972 58.3796 14.2982 57.9886 13.9082L56.5745 12.4941L49.5042 5.42383L48.0901 4.00977C47.7001 3.61977 47.7001 2.9857 48.0901 2.5957C48.2851 2.4007 48.5421 2.30273 48.7991 2.30273ZM48.7972 7.54492L54.4534 13.2012L51.6272 16.0293L45.969 10.373L48.7972 7.54492ZM41.7268 9.37305C41.9948 9.37305 42.2449 9.47702 42.4339 9.66602L52.3323 19.5664C52.5213 19.7544 52.6253 20.0054 52.6253 20.2734C52.6253 20.5414 52.5213 20.7905 52.3323 20.9785L21.635 51.6777C21.246 52.0677 20.61 52.0677 20.219 51.6777L18.805 50.2637L11.7347 43.1934L10.3206 41.7793C9.93059 41.3893 9.93059 40.7543 10.3206 40.3633L41.0179 9.66602C41.2069 9.47702 41.4588 9.37305 41.7268 9.37305ZM41.7249 16.3105C40.6884 16.3105 39.6523 16.6874 38.8968 17.4434L35.0686 21.2715C34.3126 22.0265 33.8968 23.0326 33.8968 24.1016C33.8968 25.1706 34.3126 26.1747 35.0686 26.9297C35.8236 27.6857 36.8288 28.1016 37.8968 28.1016C38.9648 28.1016 39.9708 27.6857 40.7268 26.9297L44.555 23.1016C45.311 22.3466 45.7268 21.3405 45.7268 20.2715C45.7268 19.2025 45.311 18.1984 44.555 17.4434C43.7995 16.6874 42.7614 16.3105 41.7249 16.3105ZM41.7268 18.2715C42.2618 18.2715 42.7629 18.4794 43.1409 18.8574C43.5189 19.2354 43.7268 19.7375 43.7268 20.2715C43.7268 20.8055 43.5189 21.3095 43.1409 21.6875L39.3128 25.5156C38.5568 26.2716 37.2387 26.2716 36.4827 25.5156C36.1047 25.1376 35.8968 24.6356 35.8968 24.1016C35.8968 23.5676 36.1047 23.0635 36.4827 22.6855L40.3108 18.8574C40.6888 18.4794 41.1918 18.2715 41.7268 18.2715ZM29.4124 24.5156C29.1566 24.5156 28.9009 24.6131 28.7054 24.8086L14.5628 38.9492C14.1718 39.3402 14.1718 39.9723 14.5628 40.3633L21.635 47.4355C21.83 47.6305 22.0861 47.7285 22.3421 47.7285C22.5981 47.7285 22.8541 47.6305 23.0491 47.4355L37.1897 33.293C37.5807 32.902 37.5807 32.2699 37.1897 31.8789L30.1194 24.8086C29.9239 24.6131 29.6681 24.5156 29.4124 24.5156ZM29.4124 26.9297L35.0686 32.5859L32.9475 34.707L30.8265 32.5859C30.4355 32.1949 29.8034 32.1949 29.4124 32.5859C29.0214 32.9769 29.0214 33.61 29.4124 34L31.5335 36.1211L29.4124 38.2422L27.2913 36.1211C26.9003 35.7301 26.2682 35.7301 25.8772 36.1211C25.4862 36.5121 25.4862 37.1442 25.8772 37.5352L27.9983 39.6562L25.8772 41.7793L23.7561 39.6562C23.3651 39.2653 22.7331 39.2653 22.3421 39.6562C21.9511 40.0462 21.9511 40.6793 22.3421 41.0703L24.4632 43.1934L22.3421 45.3145L16.6839 39.6562L29.4124 26.9297ZM11.0276 45.3125L16.6858 50.9707L13.8558 53.7988L13.1507 53.0938L13.1487 53.0918L8.90653 48.8496L8.90458 48.8477L8.1995 48.1426L11.0276 45.3125ZM8.19755 50.9707L11.0276 53.7988L8.1995 56.627L5.36942 53.7988L8.19755 50.9707Z" fill="black"/>
</svg>
