<svg width="57" height="59" viewBox="0 0 57 59" fill="none" xmlns="http://www.w3.org/2000/svg">
<path d="M5 0C3.346 0 2 1.346 2 3V17.1836C0.837162 17.5967 0 18.6954 0 20C0 26.2275 3.18141 31.724 8.00195 34.957C8.00189 34.9716 8 34.9855 8 35C8 39.3105 10.7317 42.9738 14.5547 44.3789C16.5657 52.8655 24.2731 59 33 59C43.477 59 52 50.477 52 40V15.4121C54.9282 14.2225 57 11.3501 57 8C57 3.589 53.411 0 49 0C44.589 0 41 3.589 41 8C41 11.3501 43.0718 14.2225 46 15.4121V40C46 47.168 40.168 53 33 53C27.576 53 22.7321 49.5914 20.8438 44.584C24.9806 43.3585 28 39.5345 28 35C28 34.9855 27.9981 34.9716 27.998 34.957C32.8186 31.724 36 26.2275 36 20C36 18.6954 35.1628 17.5967 34 17.1836V3C34 1.346 32.654 0 31 0H28C26.346 0 25 1.346 25 3C25 4.654 26.346 6 28 6H31C31.3524 6 31.6856 5.92856 32 5.81641V17.1836C30.8372 17.5967 30 18.6954 30 20C30 26.617 24.617 32 18 32C11.383 32 6 26.617 6 20C6 18.6954 5.16284 17.5967 4 17.1836V5.81641C4.31439 5.92856 4.64761 6 5 6H8C9.654 6 11 4.654 11 3C11 1.346 9.654 0 8 0H5ZM5 2H8C8.552 2 9 2.449 9 3C9 3.551 8.552 4 8 4H5C4.448 4 4 3.551 4 3C4 2.449 4.448 2 5 2ZM28 2H31C31.552 2 32 2.449 32 3C32 3.551 31.552 4 31 4H28C27.448 4 27 3.551 27 3C27 2.449 27.448 2 28 2ZM49 2C52.309 2 55 4.691 55 8C55 11.309 52.309 14 49 14C45.691 14 43 11.309 43 8C43 4.691 45.691 2 49 2ZM49 4C46.794 4 45 5.794 45 8C45 10.206 46.794 12 49 12C51.206 12 53 10.206 53 8C53 5.794 51.206 4 49 4ZM49 6C50.103 6 51 6.897 51 8C51 9.103 50.103 10 49 10C47.897 10 47 9.103 47 8C47 6.897 47.897 6 49 6ZM48 16H50V40C50 49.374 42.374 57 33 57C25.564 57 18.9473 52.0223 16.7812 44.9883C17.0572 44.9952 17.3207 44.9867 17.584 44.9785C17.7229 44.9842 17.8597 45 18 45C18.2872 45 18.5705 44.9808 18.8516 44.957C20.938 50.9174 26.6221 55 33 55C41.271 55 48 48.271 48 40V16ZM3 19C3.551 19 4 19.449 4 20C4 27.72 10.28 34 18 34C25.72 34 32 27.72 32 20C32 19.449 32.449 19 33 19C33.551 19 34 19.449 34 20C34 25.2543 31.4428 29.9113 27.5195 32.8301C27.2515 33.0294 26.9816 33.2255 26.7012 33.4082C26.6381 33.4493 26.5715 33.4852 26.5078 33.5254C25.9319 33.8894 25.3309 34.216 24.709 34.5059C24.6052 34.5541 24.5054 34.6083 24.4004 34.6543C24.1601 34.7601 23.9123 34.8512 23.666 34.9453C23.4546 35.0257 23.2429 35.1061 23.0273 35.1777C22.8101 35.2503 22.5885 35.3156 22.3672 35.3789C22.102 35.4544 21.835 35.524 21.5645 35.5859C21.3669 35.6314 21.169 35.6749 20.9688 35.7129C20.656 35.7719 20.3384 35.8189 20.0195 35.8594C19.8484 35.8812 19.6787 35.9075 19.5059 35.9238C19.0093 35.9705 18.5085 36 18 36C17.4915 36 16.9907 35.9705 16.4941 35.9238C16.3213 35.9075 16.1516 35.8812 15.9805 35.8594C15.6616 35.8189 15.344 35.7719 15.0312 35.7129C14.831 35.6749 14.6331 35.6314 14.4355 35.5859C14.165 35.524 13.898 35.4544 13.6328 35.3789C13.4115 35.3156 13.1899 35.2503 12.9727 35.1777C12.7571 35.1061 12.5454 35.0257 12.334 34.9453C12.0877 34.8512 11.8399 34.7601 11.5996 34.6543C11.4946 34.6083 11.3948 34.5541 11.291 34.5059C10.6691 34.216 10.0681 33.8894 9.49219 33.5254C9.42853 33.4852 9.36188 33.4493 9.29883 33.4082C9.01845 33.2255 8.74852 33.0294 8.48047 32.8301C4.55718 29.9113 2 25.2543 2 20C2 19.449 2.449 19 3 19ZM10.084 36.1582C10.324 36.277 10.5681 36.3866 10.8125 36.4941C10.9203 36.5413 11.0278 36.5877 11.1367 36.6328C11.5801 36.8174 12.0303 36.9812 12.4863 37.1289C12.5744 37.1573 12.6614 37.1877 12.75 37.2148C13.2466 37.3671 13.7505 37.4954 14.2598 37.6035C14.3409 37.6208 14.4223 37.6362 14.5039 37.6523C15.0324 37.7568 15.5658 37.84 16.1055 37.8965C16.1619 37.9024 16.2188 37.9067 16.2754 37.9121C16.8455 37.9663 17.4202 38 18 38C18.5798 38 19.1545 37.9663 19.7246 37.9121C19.7812 37.9067 19.8381 37.9024 19.8945 37.8965C20.4342 37.84 20.9676 37.7568 21.4961 37.6523C21.5777 37.6362 21.6591 37.6208 21.7402 37.6035C22.2495 37.4954 22.7534 37.3671 23.25 37.2148C23.3386 37.1877 23.4256 37.1573 23.5137 37.1289C23.9697 36.9812 24.4199 36.8174 24.8633 36.6328C24.9722 36.5877 25.0797 36.5413 25.1875 36.4941C25.4319 36.3866 25.676 36.277 25.916 36.1582C25.353 40.0222 22.018 43 18 43C13.982 43 10.647 40.0222 10.084 36.1582ZM40.3457 42.1836C39.9555 42.1797 39.5837 42.4045 39.418 42.7832C39.198 43.2892 39.4295 43.8776 39.9355 44.0996L41.7676 44.9004C41.8976 44.9574 42.035 44.9824 42.168 44.9824C42.554 44.9824 42.9219 44.7598 43.0859 44.3828C43.3059 43.8768 43.0744 43.2884 42.5684 43.0664L40.7344 42.2656C40.6071 42.2106 40.4758 42.1849 40.3457 42.1836ZM26.9023 44.0449C26.6478 44.0184 26.383 44.0887 26.168 44.2637L24.6172 45.5273C24.1892 45.8753 24.1237 46.5065 24.4727 46.9355C24.6707 47.1775 24.957 47.3027 25.248 47.3027C25.47 47.3027 25.6949 47.2281 25.8809 47.0781L27.4316 45.8145C27.8596 45.4665 27.9232 44.8372 27.5742 44.4082C27.4002 44.1952 27.1568 44.0714 26.9023 44.0449ZM37.959 45.373C37.7055 45.3388 37.4393 45.4014 37.2188 45.5684C36.7798 45.9024 36.6933 46.5307 37.0273 46.9707L38.2383 48.5625C38.4343 48.8215 38.7332 48.957 39.0352 48.957C39.2462 48.957 39.4577 48.891 39.6387 48.752C40.0777 48.418 40.1621 47.7916 39.8281 47.3516L38.6191 45.7598C38.4526 45.5398 38.2125 45.4073 37.959 45.373ZM30.0488 46.4316C29.6594 46.4402 29.2944 46.6763 29.1406 47.0625L28.4023 48.9219C28.1993 49.4359 28.4508 50.0167 28.9648 50.2207C29.0858 50.2687 29.209 50.2891 29.332 50.2891C29.729 50.2891 30.1067 50.0512 30.2637 49.6582L31.002 47.8008C31.205 47.2868 30.9535 46.706 30.4395 46.502C30.3112 46.4512 30.1786 46.4288 30.0488 46.4316ZM33.9512 46.9258C33.4052 47.0008 33.0237 47.5057 33.0977 48.0527L33.3672 50.0332C33.4362 50.5342 33.8654 50.8965 34.3574 50.8965C34.4024 50.8965 34.4481 50.8957 34.4941 50.8887C35.0401 50.8137 35.4236 50.3087 35.3496 49.7617L35.0781 47.7793C35.0021 47.2333 34.4962 46.8538 33.9512 46.9258Z" fill="black"/>
</svg>
