<svg width="60" height="58" viewBox="0 0 60 58" fill="none" xmlns="http://www.w3.org/2000/svg">
<path d="M21.2578 0C20.6448 0 20.0734 0.275859 19.6914 0.755859C19.3094 1.23686 19.1693 1.85281 19.3223 2.50781L25.502 23.4551C20.574 23.6315 16.5708 23.8363 13.5801 24.0684L6.13869 12.9258C5.76769 12.3458 5.13919 12 4.45119 12H2.25783C1.64483 12 1.07243 12.2759 0.691427 12.7559C0.309428 13.2369 0.170709 13.8536 0.304709 14.4336L3.00002 27.1055V30.8945L0.308615 43.5508C0.171615 44.1468 0.309427 44.7641 0.691427 45.2441C1.07243 45.7241 1.64483 46 2.25783 46H4.45119C5.13919 46 5.76897 45.6548 6.12697 45.0938L13.5801 33.9316C16.5708 34.1637 20.574 34.3685 25.502 34.5449L19.3086 55.5508C19.1716 56.1468 19.3094 56.7641 19.6914 57.2441C20.0724 57.7241 20.6448 58 21.2578 58H25.4512C26.1392 58 26.7696 57.6538 27.0996 57.1328L43.5391 34.9512C47.9601 34.9988 50.9415 35 51 35C54.051 35 60 31.761 60 29C60 26.239 54.051 23 51 23C50.9415 23 47.9611 23.0012 43.541 23.0488L27.1387 0.925781C26.7677 0.345781 26.1392 0 25.4512 0H21.2578ZM21.2578 2L25.4903 2.05859L41.0781 23.0859C37.0545 23.1391 32.3898 23.2215 27.5625 23.375L21.2578 2ZM2.25783 14L4.46291 14.0195L11.3028 24.2617C7.85375 24.5926 5.84535 24.9622 4.6719 25.3477L2.25783 14ZM51 25C53.661 25 58 27.922 58 29C58 30.078 53.661 33 51 33C30.581 33 7.89102 32.1812 5.00002 30.6602V27.3398C7.89102 25.8188 30.581 25 51 25ZM10 27C9.44702 27 9.00002 27.447 9.00002 28V30C9.00002 30.553 9.44702 31 10 31C10.553 31 11 30.553 11 30V28C11 27.447 10.553 27 10 27ZM15 27C14.447 27 14 27.447 14 28V30C14 30.553 14.447 31 15 31C15.553 31 16 30.553 16 30V28C16 27.447 15.553 27 15 27ZM20 27C19.447 27 19 27.447 19 28V30C19 30.553 19.447 31 20 31C20.553 31 21 30.553 21 30V28C21 27.447 20.553 27 20 27ZM25 27C24.447 27 24 27.447 24 28V30C24 30.553 24.447 31 25 31C25.553 31 26 30.553 26 30V28C26 27.447 25.553 27 25 27ZM30 27C29.447 27 29 27.447 29 28V30C29 30.553 29.447 31 30 31C30.553 31 31 30.553 31 30V28C31 27.447 30.553 27 30 27ZM35 27C34.447 27 34 27.447 34 28V30C34 30.553 34.447 31 35 31C35.553 31 36 30.553 36 30V28C36 27.447 35.553 27 35 27ZM40 27C39.447 27 39 27.447 39 28V30C39 30.553 39.447 31 40 31C40.553 31 41 30.553 41 30V28C41 27.447 40.553 27 40 27ZM45 27C44.447 27 44 27.447 44 28V30C44 30.553 44.447 31 45 31C45.553 31 46 30.553 46 30V28C46 27.447 45.553 27 45 27ZM50 27C49.447 27 49 27.447 49 28V30C49 30.553 49.447 31 50 31C50.553 31 51 30.553 51 30V28C51 27.447 50.553 27 50 27ZM4.6719 32.6523C5.84535 33.0378 7.85375 33.4074 11.3028 33.7383L4.45119 44L2.26174 43.9824L4.6719 32.6523ZM27.5625 34.625C32.389 34.7785 37.0529 34.8609 41.0762 34.9141L25.4512 56L21.2403 56.0586L27.5625 34.625Z" fill="black"/>
</svg>
