<svg width="50" height="58" viewBox="0 0 50 58" fill="none" xmlns="http://www.w3.org/2000/svg">
<path d="M10 0C9.447 0 9 0.448 9 1V8.5293L7 9.61328V7C7 6.448 6.553 6 6 6C5.447 6 5 6.448 5 7V10.6953L0.523438 13.1211C0.201438 13.2951 0 13.633 0 14V20C0 20.353 0.186281 20.6784 0.488281 20.8594C0.790281 21.0404 1.16456 21.0459 1.47656 20.8789L4 19.5117V56H1C0.448 56 0 56.448 0 57C0 57.552 0.448 58 1 58H49C49.552 58 50 57.552 50 57C50 56.448 49.552 56 49 56H46V19.5117L48.5234 20.8789C48.6734 20.9599 48.836 21 49 21C49.177 21 49.3537 20.9534 49.5117 20.8594C49.8137 20.6794 50 20.353 50 20V14C50 13.633 49.7996 13.2951 49.4766 13.1211L25.4766 0.121094C25.1796 -0.0399064 24.8204 -0.0399064 24.5234 0.121094L11 7.44531V1C11 0.448 10.553 0 10 0ZM25 2.13672L48 14.5957V18.3203L25.4766 6.12109C25.3276 6.04009 25.164 6 25 6C24.836 6 24.6724 6.04009 24.5234 6.12109L2 18.3223V14.5957L25 2.13672ZM25 8.13672L44 18.4277V56H30V49C30 48.448 29.553 48 29 48H21C20.447 48 20 48.448 20 49V56H6V35H33C33.552 35 34 34.552 34 34C34 33.448 33.552 33 33 33H6V18.4277L25 8.13672ZM12 20C11.448 20 11 20.448 11 21C11 21.552 11.448 22 12 22H14C14.552 22 15 21.552 15 21C15 20.448 14.552 20 14 20H12ZM20 20C19.448 20 19 20.448 19 21C19 21.552 19.448 22 20 22H22C22.552 22 23 21.552 23 21C23 20.448 22.552 20 22 20H20ZM28 20C27.448 20 27 20.448 27 21C27 21.552 27.448 22 28 22H30C30.552 22 31 21.552 31 21C31 20.448 30.552 20 30 20H28ZM36 20C35.448 20 35 20.448 35 21C35 21.552 35.448 22 36 22H38C38.552 22 39 21.552 39 21C39 20.448 38.552 20 38 20H36ZM12 24C11.448 24 11 24.448 11 25C11 25.552 11.448 26 12 26H14C14.552 26 15 25.552 15 25C15 24.448 14.552 24 14 24H12ZM20 24C19.448 24 19 24.448 19 25C19 25.552 19.448 26 20 26H22C22.552 26 23 25.552 23 25C23 24.448 22.552 24 22 24H20ZM28 24C27.448 24 27 24.448 27 25C27 25.552 27.448 26 28 26H30C30.552 26 31 25.552 31 25C31 24.448 30.552 24 30 24H28ZM36 24C35.448 24 35 24.448 35 25C35 25.552 35.448 26 36 26H38C38.552 26 39 25.552 39 25C39 24.448 38.552 24 38 24H36ZM12 28C11.448 28 11 28.448 11 29C11 29.552 11.448 30 12 30H14C14.552 30 15 29.552 15 29C15 28.448 14.552 28 14 28H12ZM20 28C19.448 28 19 28.448 19 29C19 29.552 19.448 30 20 30H22C22.552 30 23 29.552 23 29C23 28.448 22.552 28 22 28H20ZM28 28C27.448 28 27 28.448 27 29C27 29.552 27.448 30 28 30H30C30.552 30 31 29.552 31 29C31 28.448 30.552 28 30 28H28ZM36 28C35.448 28 35 28.448 35 29C35 29.552 35.448 30 36 30H38C38.552 30 39 29.552 39 29C39 28.448 38.552 28 38 28H36ZM37 33C36.448 33 36 33.448 36 34C36 34.552 36.448 35 37 35H41C41.552 35 42 34.552 42 34C42 33.448 41.552 33 41 33H37ZM12 38C11.448 38 11 38.448 11 39C11 39.552 11.448 40 12 40H14C14.552 40 15 39.552 15 39C15 38.448 14.552 38 14 38H12ZM20 38C19.448 38 19 38.448 19 39C19 39.552 19.448 40 20 40H22C22.552 40 23 39.552 23 39C23 38.448 22.552 38 22 38H20ZM28 38C27.448 38 27 38.448 27 39C27 39.552 27.448 40 28 40H30C30.552 40 31 39.552 31 39C31 38.448 30.552 38 30 38H28ZM36 38C35.448 38 35 38.448 35 39C35 39.552 35.448 40 36 40H38C38.552 40 39 39.552 39 39C39 38.448 38.552 38 38 38H36ZM12 42C11.448 42 11 42.448 11 43C11 43.552 11.448 44 12 44H14C14.552 44 15 43.552 15 43C15 42.448 14.552 42 14 42H12ZM20 42C19.448 42 19 42.448 19 43C19 43.552 19.448 44 20 44H22C22.552 44 23 43.552 23 43C23 42.448 22.552 42 22 42H20ZM28 42C27.448 42 27 42.448 27 43C27 43.552 27.448 44 28 44H30C30.552 44 31 43.552 31 43C31 42.448 30.552 42 30 42H28ZM36 42C35.448 42 35 42.448 35 43C35 43.552 35.448 44 36 44H38C38.552 44 39 43.552 39 43C39 42.448 38.552 42 38 42H36ZM12 46C11.448 46 11 46.448 11 47C11 47.552 11.448 48 12 48H14C14.552 48 15 47.552 15 47C15 46.448 14.552 46 14 46H12ZM36 46C35.448 46 35 46.448 35 47C35 47.552 35.448 48 36 48H38C38.552 48 39 47.552 39 47C39 46.448 38.552 46 38 46H36ZM12 50C11.448 50 11 50.448 11 51C11 51.552 11.448 52 12 52H14C14.552 52 15 51.552 15 51C15 50.448 14.552 50 14 50H12ZM22 50H28V56H22V50ZM36 50C35.448 50 35 50.448 35 51C35 51.552 35.448 52 36 52H38C38.552 52 39 51.552 39 51C39 50.448 38.552 50 38 50H36Z" fill="black"/>
</svg>
