<svg width="60" height="53" viewBox="0 0 60 53" fill="none" xmlns="http://www.w3.org/2000/svg">
<path d="M3 0C1.34766 0 0 1.34766 0 3V35C0 36.6523 1.34766 38 3 38H10.1445C10.207 39.0703 10.0312 41.3359 8.14062 44.4844C7.9375 44.8281 7.95703 45.2617 8.1875 45.582C8.37891 45.8477 8.68359 46 9 46C9.07031 46 9.14453 45.9922 9.21875 45.9766C16.9414 44.2617 19.8164 39.7383 20.6562 38H28V43C28 44.6523 29.3477 46 31 46H43.2344C43.8359 47.8398 45.8633 52.1328 51.8594 52.9883C51.9062 52.9961 51.9531 53 52 53C52.3047 53 52.5938 52.8594 52.7852 52.6172C53.0078 52.3359 53.0625 51.9609 52.9297 51.6289C51.7266 48.625 51.6914 46.8281 51.7812 46H57C58.6523 46 60 44.6523 60 43V21C60 19.3477 58.6523 18 57 18H52V3C52 1.34766 50.6523 0 49 0H3ZM3 2H49C49.5508 2 50 2.44922 50 3V35C50 35.5508 49.5508 36 49 36H20C19.5703 36 19.1875 36.2734 19.0508 36.6836C19.0352 36.7344 17.4727 41.2031 10.9531 43.4219C12.7812 39.3164 11.9883 36.8047 11.9492 36.6836C11.8125 36.2734 11.4297 36 11 36H3C2.44922 36 2 35.5508 2 35V3C2 2.44922 2.44922 2 3 2ZM11 14C10.4453 14 10 14.4492 10 15C10 15.5508 10.4453 16 11 16H29C29.5547 16 30 15.5508 30 15C30 14.4492 29.5547 14 29 14H11ZM33 14C32.4453 14 32 14.4492 32 15C32 15.5508 32.4453 16 33 16H37C37.5547 16 38 15.5508 38 15C38 14.4492 37.5547 14 37 14H33ZM11 20C10.4453 20 10 20.4492 10 21C10 21.5508 10.4453 22 11 22H33C33.5547 22 34 21.5508 34 21C34 20.4492 33.5547 20 33 20H11ZM52 20H57C57.5508 20 58 20.4492 58 21V43C58 43.5508 57.5508 44 57 44H51C50.6211 44 50.2773 44.2148 50.1055 44.5508C49.9961 44.7695 49.1914 46.5898 50.4492 50.6289C45.8008 49.1641 45.0195 45.0273 44.9844 44.8359C44.9062 44.3555 44.4883 44 44 44H31C30.4492 44 30 43.5508 30 43V38H49C50.6523 38 52 36.6523 52 35V20ZM6 30C5.44531 30 5 30.4492 5 31V33C5 33.5508 5.44531 34 6 34C6.55469 34 7 33.5508 7 33V31C7 30.4492 6.55469 30 6 30ZM11 30C10.4453 30 10 30.4492 10 31V33C10 33.5508 10.4453 34 11 34C11.5547 34 12 33.5508 12 33V31C12 30.4492 11.5547 30 11 30ZM16 30C15.4453 30 15 30.4492 15 31V33C15 33.5508 15.4453 34 16 34C16.5547 34 17 33.5508 17 33V31C17 30.4492 16.5547 30 16 30ZM21 30C20.4453 30 20 30.4492 20 31V33C20 33.5508 20.4453 34 21 34C21.5547 34 22 33.5508 22 33V31C22 30.4492 21.5547 30 21 30ZM26 30C25.4453 30 25 30.4492 25 31V33C25 33.5508 25.4453 34 26 34C26.5547 34 27 33.5508 27 33V31C27 30.4492 26.5547 30 26 30ZM31 30C30.4453 30 30 30.4492 30 31V33C30 33.5508 30.4453 34 31 34C31.5547 34 32 33.5508 32 33V31C32 30.4492 31.5547 30 31 30ZM36 30C35.4453 30 35 30.4492 35 31V33C35 33.5508 35.4453 34 36 34C36.5547 34 37 33.5508 37 33V31C37 30.4492 36.5547 30 36 30ZM41 30C40.4453 30 40 30.4492 40 31V33C40 33.5508 40.4453 34 41 34C41.5547 34 42 33.5508 42 33V31C42 30.4492 41.5547 30 41 30ZM46 30C45.4453 30 45 30.4492 45 31V33C45 33.5508 45.4453 34 46 34C46.5547 34 47 33.5508 47 33V31C47 30.4492 46.5547 30 46 30Z" fill="black"/>
</svg>
