<svg width="6" height="10" viewBox="0 0 6 10" fill="none" xmlns="http://www.w3.org/2000/svg">
<path d="M2.314 6.348C2.028 6.036 1.885 5.65467 1.885 5.204C1.885 4.85733 1.98467 4.54533 2.184 4.268C2.38333 3.99067 2.6 3.78267 2.834 3.644C3.068 3.50533 3.28467 3.34067 3.484 3.15C3.68333 2.95933 3.783 2.76867 3.783 2.578C3.783 2.36133 3.69633 2.18367 3.523 2.045C3.35833 1.90633 3.107 1.837 2.769 1.837C2.15367 1.837 1.62067 2.10567 1.17 2.643L0.117 1.46C0.836333 0.619333 1.78533 0.198999 2.964 0.198999C3.796 0.198999 4.45467 0.389666 4.94 0.771C5.42533 1.14367 5.668 1.63767 5.668 2.253C5.668 2.59967 5.59433 2.91167 5.447 3.189C5.29967 3.46633 5.11767 3.69167 4.901 3.865C4.693 4.03833 4.48067 4.19867 4.264 4.346C4.04733 4.49333 3.86533 4.65367 3.718 4.827C3.57067 5.00033 3.497 5.18667 3.497 5.386C3.497 5.61133 3.575 5.79333 3.731 5.932L2.314 6.348ZM3.679 8.831C3.471 9.039 3.224 9.143 2.938 9.143C2.652 9.143 2.405 9.039 2.197 8.831C1.989 8.623 1.885 8.376 1.885 8.09C1.885 7.804 1.989 7.557 2.197 7.349C2.405 7.141 2.652 7.037 2.938 7.037C3.224 7.037 3.471 7.141 3.679 7.349C3.887 7.557 3.991 7.804 3.991 8.09C3.991 8.376 3.887 8.623 3.679 8.831Z" fill="white"/>
</svg>
