<svg width="12" height="18" viewBox="0 0 12 18" fill="none" xmlns="http://www.w3.org/2000/svg">
<path d="M5.99828 0.360352C2.82297 0.360352 0.238281 2.94504 0.238281 6.12035C0.238281 11.2011 5.50469 17.2607 5.72828 17.5166C5.79719 17.5954 5.89422 17.6404 5.99828 17.6404C6.10938 17.6333 6.19938 17.5954 6.26828 17.5166C6.49188 17.2564 11.7583 11.0929 11.7583 6.12035C11.7583 2.94504 9.17359 0.360352 5.99828 0.360352ZM5.99828 4.32035C7.19078 4.32035 8.15828 5.28785 8.15828 6.48035C8.15828 7.67285 7.19078 8.64035 5.99828 8.64035C4.80578 8.64035 3.83828 7.67285 3.83828 6.48035C3.83828 5.28785 4.80578 4.32035 5.99828 4.32035Z" fill="#BFAA86"/>
</svg>
