<svg width="18" height="14" viewBox="0 0 18 14" fill="none" xmlns="http://www.w3.org/2000/svg">
<path d="M0 0.52002V1.52127C1.08422 2.46486 7.30406 7.88736 7.79625 8.31627C8.3025 8.75783 8.80734 8.80002 9 8.80002C9.19266 8.80002 9.6975 8.75783 10.2038 8.31627C10.7142 7.87189 17.2969 2.13299 18 1.52127V0.52002H0ZM0 2.47752V11.5113L5.445 7.21377C3.68016 5.67814 1.16297 3.49002 0 2.47752ZM18 2.47752C16.9017 3.43377 14.3452 5.65564 12.555 7.21377L18 11.5V2.47752ZM5.99625 7.69752L0 12.4225V13.48H18V12.4113L12.0038 7.69752C11.3063 8.30502 10.8042 8.74518 10.6763 8.85627C9.98578 9.45674 9.27281 9.52002 9 9.52002C8.72719 9.52002 8.01422 9.45815 7.32375 8.85627C7.19719 8.74658 6.69516 8.30643 5.99625 7.69752Z" fill="#BFAA86"/>
</svg>
