<svg width="14" height="15" viewBox="0 0 14 15" fill="none" xmlns="http://www.w3.org/2000/svg">
<path d="M6.74226 0.211138C5.53914 0.226802 2.95039 0.417174 1.50226 1.69616C0.427263 2.72633 0.0516385 4.24509 0.00788852 6.12591C-0.0296115 7.9995 -0.0733614 11.5178 3.44539 12.4762V13.9342C3.44539 13.9342 3.42164 14.5185 3.82164 14.639C4.31539 14.7896 4.59664 14.3384 5.06539 13.8564L5.94039 12.9046C8.34664 13.0974 10.1904 12.6522 10.4029 12.5859C10.8904 12.4353 13.641 12.0973 14.091 8.57845C14.5535 4.94512 13.866 2.65585 12.6285 1.61965L12.6223 1.61844C12.2473 1.2871 10.7473 0.232826 7.39101 0.220778C7.39101 0.220778 7.14351 0.205717 6.74226 0.211138ZM6.78414 1.23348C7.12476 1.23167 7.33414 1.24553 7.33414 1.24553C10.1716 1.25156 11.5285 2.0769 11.8473 2.35402C12.891 3.21491 13.4273 5.27948 13.0348 8.31338C12.6598 11.2533 10.4285 11.44 10.016 11.5666C9.84101 11.6208 8.21601 12.0063 6.17101 11.8798C6.17101 11.8798 4.64664 13.6516 4.17164 14.1095C4.09664 14.1878 4.00914 14.2119 3.95289 14.1998C3.87164 14.1818 3.84664 14.0854 3.85289 13.9528L3.86539 11.5316C0.883514 10.7364 1.05851 7.73503 1.08976 6.16868C1.12726 4.60234 1.43351 3.31793 2.33976 2.45041C3.56289 1.38409 5.76164 1.23951 6.78351 1.23348H6.78414ZM7.00914 2.79983C6.98455 2.79975 6.96018 2.80435 6.93743 2.81337C6.91469 2.82239 6.89401 2.83564 6.87659 2.85238C6.85917 2.86911 6.84535 2.88899 6.83592 2.91089C6.82649 2.93278 6.82164 2.95625 6.82164 2.97996C6.82164 3.02789 6.84139 3.07386 6.87656 3.10776C6.91172 3.14165 6.95941 3.16069 7.00914 3.16069C7.47379 3.15215 7.9356 3.2324 8.36791 3.3968C8.80022 3.56121 9.19446 3.80652 9.52789 4.11858C10.2091 4.75716 10.541 5.61263 10.5535 6.73317C10.5535 6.75691 10.5584 6.78041 10.5678 6.80234C10.5772 6.82426 10.591 6.84419 10.6084 6.86097C10.6258 6.87775 10.6465 6.89106 10.6693 6.90015C10.692 6.90923 10.7164 6.9139 10.741 6.9139V6.90848C10.7907 6.90848 10.8384 6.88944 10.8736 6.85555C10.9088 6.82165 10.9285 6.77568 10.9285 6.72775C10.9517 6.20079 10.8634 5.67479 10.6689 5.18179C10.4744 4.68879 10.1778 4.23911 9.79726 3.86013C9.05351 3.1613 8.11476 2.79983 7.00851 2.79983H7.00914ZM4.53789 3.21552C4.40497 3.19726 4.26956 3.22273 4.15351 3.28781H4.14601C3.88976 3.43239 3.65351 3.61313 3.42851 3.8541C3.25976 4.04688 3.16539 4.23906 3.14039 4.42582C3.12568 4.53535 3.13635 4.64666 3.17164 4.75174L3.18414 4.75777C3.37678 5.30367 3.62815 5.82864 3.93414 6.32411C4.33077 7.01802 4.81808 7.66004 5.38414 8.23446L5.40289 8.25855L5.42789 8.27663L5.44664 8.2947L5.46539 8.31277C6.06365 8.85979 6.73148 9.33145 7.45289 9.71646C8.27789 10.1502 8.77914 10.3551 9.07914 10.4394V10.4454C9.16664 10.4695 9.24664 10.4816 9.32789 10.4816C9.58397 10.4635 9.82642 10.3635 10.0166 10.1972C10.2604 9.98636 10.4541 9.75261 10.5979 9.50561V9.49958C10.7416 9.24053 10.6916 8.99293 10.4854 8.82425C10.0697 8.47375 9.61969 8.16303 9.14164 7.89649C8.82289 7.7278 8.49789 7.83022 8.36664 7.9989L8.08539 8.34169C7.94164 8.51038 7.67914 8.48628 7.67914 8.48628L7.67164 8.4923C5.72164 8.01035 5.20289 6.10723 5.20289 6.10723C5.20289 6.10723 5.17789 5.84819 5.35914 5.71565L5.70914 5.44455C5.87789 5.31201 5.99664 4.99874 5.81539 4.6915C5.53923 4.23047 5.21686 3.79665 4.85289 3.39625C4.77372 3.3016 4.66195 3.23747 4.53789 3.21552ZM7.33351 3.75169C7.28379 3.75185 7.23616 3.77104 7.20111 3.80505C7.16607 3.83906 7.14647 3.88509 7.14664 3.93302C7.1468 3.98096 7.16672 4.02686 7.202 4.06064C7.23728 4.09442 7.28504 4.11331 7.33476 4.11315C7.96023 4.12362 8.55586 4.37277 8.99101 4.80596C9.18734 5.01472 9.33826 5.25928 9.43488 5.52521C9.53149 5.79113 9.57183 6.07303 9.55351 6.35424C9.55368 6.40206 9.57351 6.44788 9.60865 6.48164C9.6438 6.51541 9.69139 6.53437 9.74101 6.53437L9.74726 6.5416C9.77194 6.5416 9.79637 6.5369 9.81916 6.52778C9.84195 6.51866 9.86265 6.50529 9.88007 6.48845C9.89749 6.4716 9.91129 6.45161 9.92067 6.42961C9.93006 6.40761 9.93485 6.38405 9.93476 6.36026C9.95351 5.64335 9.72226 5.04091 9.26601 4.55896C8.80976 4.07701 8.17226 3.80591 7.35976 3.75169C7.35102 3.7511 7.34225 3.7511 7.33351 3.75169ZM7.63976 4.72704C7.61469 4.72633 7.58972 4.73038 7.56627 4.73898C7.54282 4.74757 7.52136 4.76053 7.5031 4.77711C7.48485 4.7937 7.47017 4.81359 7.45989 4.83565C7.44961 4.8577 7.44394 4.8815 7.4432 4.90566C7.44246 4.92983 7.44667 4.95391 7.45558 4.97651C7.4645 4.99911 7.47794 5.0198 7.49515 5.03739C7.51236 5.05499 7.53299 5.06914 7.55587 5.07905C7.57876 5.08896 7.60344 5.09442 7.62851 5.09513C8.24726 5.12526 8.54726 5.42648 8.58476 6.04699C8.58639 6.09387 8.60685 6.13831 8.64184 6.17091C8.67683 6.20351 8.7236 6.22172 8.77226 6.2217H8.77851C8.80369 6.22094 8.82846 6.21531 8.85133 6.20512C8.8742 6.19494 8.8947 6.18041 8.91162 6.16242C8.92854 6.14443 8.94152 6.12333 8.94979 6.10039C8.95806 6.07746 8.96146 6.05315 8.95976 6.02892C8.91601 5.22165 8.45976 4.76921 7.64726 4.72704C7.64476 4.72699 7.64226 4.72699 7.63976 4.72704Z" fill="#8074D6"/>
</svg>
