<svg width="15" height="15" viewBox="0 0 15 15" fill="none" xmlns="http://www.w3.org/2000/svg">
<path d="M9.80152 0.209961H5.19699C0.995118 0.209961 -0.000976562 1.1701 -0.000976562 5.22032V9.65866C-0.000976562 13.7089 0.995118 14.669 5.19699 14.669H9.80152C14.0034 14.669 14.9995 13.7089 14.9995 9.65866V5.22032C14.9995 1.1701 13.9936 0.209961 9.80152 0.209961ZM12.1087 10.5244H11.0198C10.6073 10.5244 10.4803 10.209 9.73824 9.48425C9.09371 8.88196 8.80824 8.80198 8.64933 8.80198C8.4248 8.80198 8.36105 8.86298 8.36105 9.15983V10.1082C8.36105 10.3626 8.27809 10.5153 7.57965 10.5153C6.42465 10.5153 5.14309 9.8421 4.24449 8.58782C2.88934 6.74977 2.51855 5.37304 2.51855 5.08838C2.51855 4.93521 2.58184 4.79198 2.88699 4.79198H3.97824C4.25434 4.79198 4.35934 4.91443 4.46668 5.19908C5.00621 6.70052 5.9048 8.0158 6.27559 8.0158C6.41246 8.0158 6.47574 7.9548 6.47574 7.61819V6.0675C6.43402 5.35225 6.04355 5.2908 6.04355 5.03687C6.04355 4.91443 6.14856 4.79198 6.31684 4.79198H8.03293C8.26496 4.79198 8.35027 4.91443 8.35027 5.17785V7.26982C8.35027 7.49574 8.45527 7.57571 8.51855 7.57571C8.65543 7.57571 8.77262 7.49574 9.02621 7.25085C9.80996 6.40366 10.3715 5.09742 10.3715 5.09742C10.4446 4.94425 10.5717 4.80102 10.8478 4.80102H11.939C12.2662 4.80102 12.3393 4.96323 12.2662 5.18914C12.1293 5.80092 10.7939 7.61773 10.7939 7.61773C10.679 7.80118 10.635 7.88115 10.7939 8.08583C10.9111 8.239 11.2921 8.55664 11.5457 8.84129C12.0121 9.35186 12.3707 9.7802 12.4664 10.0766C12.5737 10.3707 12.4153 10.5239 12.1073 10.5239L12.1087 10.5244Z" fill="#4872A3"/>
</svg>
